<svg width="631" height="598" viewBox="0 0 631 598" fill="none" xmlns="http://www.w3.org/2000/svg">
<g clip-path="url(#clip0_2100_11676)">
<rect width="631" height="598" fill="white"/>
<path d="M456.366 428.725L426.283 172.735L309.924 494H296.869L171.428 172.735L142.48 428.725C141.723 434.023 141.345 438.564 141.345 442.348C141.345 455.592 144.94 464.485 152.129 469.025C159.319 473.566 173.131 476.783 193.565 478.675V494H73.2322V478.675C89.5035 477.539 100.856 474.891 107.289 470.728C113.721 466.187 117.695 457.484 119.208 444.618L153.832 152.301C153.832 137.544 150.427 127.327 143.615 121.651C136.804 115.596 124.127 112.001 105.586 110.866V95.5408H202.646C203.403 104.244 206.241 115.029 211.16 127.894L320.708 407.724L420.607 127.894C425.526 115.029 428.364 104.244 429.121 95.5408H525.614V110.866C507.451 112.001 494.963 115.596 488.152 121.651C481.341 127.327 477.935 137.544 477.935 152.301L511.991 444.618C513.505 457.484 517.478 466.187 523.911 470.728C530.344 474.891 541.696 477.539 557.967 478.675V494H404.714V478.675C425.148 476.783 438.959 473.566 446.149 469.025C453.339 464.485 456.934 455.592 456.934 442.348C456.934 441.969 456.744 440.077 456.366 436.672C456.366 432.888 456.366 430.239 456.366 428.725Z" fill="black"/>
</g>
<defs>
<clipPath id="clip0_2100_11676">
<rect width="631" height="598" fill="white"/>
</clipPath>
</defs>
</svg>
