<svg width="84" height="89" viewBox="0 0 84 89" fill="none" xmlns="http://www.w3.org/2000/svg">
<path d="M21.6396 28.3408L37.7373 70H46.0293L62.4199 28.3408H62.7129C62.5828 29.9669 62.4524 31.6906 62.3223 33.5117C62.2572 35.2678 62.2256 37.0242 62.2256 38.7803V70H62.6621C56.9351 74.3893 49.773 77 42 77C34.227 77 27.0649 74.3893 21.3379 70H21.7363V39.0732C21.7363 37.122 21.7047 35.2678 21.6396 33.5117C21.5746 31.6906 21.4441 29.9669 21.249 28.3408H21.6396Z" fill="white"/>
<path d="M71.5908 26.2471C74.3964 31.192 76 36.9085 76 43C76 49.0912 74.3962 54.8072 71.5908 59.752V26.2471Z" fill="white"/>
<path d="M12.2734 59.5098C9.55239 54.6209 8 48.9921 8 43C8 37.0076 9.55213 31.3783 12.2734 26.4893V59.5098Z" fill="white"/>
<path d="M42 9C50.5752 9 58.4075 12.1761 64.3887 17.4141H57.7373L41.9326 57.707L26.4199 17.4141H19.6113C25.5925 12.1761 33.4248 9 42 9Z" fill="white"/>
</svg>
