<svg width="44" height="32" viewBox="0 0 44 32" fill="none" xmlns="http://www.w3.org/2000/svg">
<path d="M43.0768 15.4855C43.0768 15.3798 43.0768 15.2596 43.072 15.1202C43.0672 14.7307 43.0576 14.2932 43.048 13.8269C43.0095 12.4855 42.9422 11.149 42.8364 9.8894C42.6922 8.15383 42.4807 6.70671 42.1922 5.62018C41.8878 4.48628 41.2911 3.45215 40.4618 2.62113C39.6325 1.79011 38.5995 1.19132 37.4663 0.884613C36.1057 0.519229 33.4422 0.293268 29.6922 0.153846C27.9086 0.0865381 25.9999 0.0432688 24.0913 0.0192304C23.423 0.00961507 22.8028 0.00480768 22.2451 0H20.8317C20.274 0.00480768 19.6538 0.00961507 18.9855 0.0192304C17.0769 0.0432688 15.1682 0.0865381 13.3846 0.153846C9.63459 0.298076 6.96633 0.524037 5.61056 0.884613C4.47692 1.19057 3.44359 1.78911 2.61415 2.62024C1.7847 3.45138 1.18827 4.48591 0.884613 5.62018C0.591345 6.70671 0.384614 8.15383 0.240384 9.8894C0.134615 11.149 0.0673075 12.4855 0.028846 13.8269C0.014423 14.2932 0.00961529 14.7307 0.00480761 15.1202C0.00480761 15.2596 0 15.3798 0 15.4855V15.7548C0 15.8605 -7.35175e-08 15.9807 0.00480761 16.1202C0.00961529 16.5096 0.0192306 16.9471 0.028846 17.4134C0.0673075 18.7548 0.134615 20.0913 0.240384 21.3509C0.384614 23.0865 0.596152 24.5336 0.884613 25.6201C1.5 27.923 3.30768 29.7403 5.61056 30.3557C6.96633 30.7211 9.63459 30.947 13.3846 31.0865C15.1682 31.1538 17.0769 31.197 18.9855 31.2211C19.6538 31.2307 20.274 31.2355 20.8317 31.2403H22.2451C22.8028 31.2355 23.423 31.2307 24.0913 31.2211C25.9999 31.197 27.9086 31.1538 29.6922 31.0865C33.4422 30.9422 36.1105 30.7163 37.4663 30.3557C39.7691 29.7403 41.5768 27.9278 42.1922 25.6201C42.4855 24.5336 42.6922 23.0865 42.8364 21.3509C42.9422 20.0913 43.0095 18.7548 43.048 17.4134C43.0624 16.9471 43.0672 16.5096 43.072 16.1202C43.072 15.9807 43.0768 15.8605 43.0768 15.7548V15.4855ZM39.6153 15.7355C39.6153 15.8365 39.6153 15.9471 39.6105 16.0769C39.6057 16.4519 39.5961 16.8653 39.5864 17.3125C39.5528 18.5913 39.4855 19.8701 39.3845 21.0576C39.2547 22.6057 39.072 23.8749 38.8461 24.7259C38.548 25.8365 37.673 26.7163 36.5672 27.0096C35.5576 27.2788 33.0143 27.4951 29.5576 27.6249C27.8076 27.6922 25.923 27.7355 24.0432 27.7595C23.3846 27.7692 22.774 27.774 22.2259 27.774H20.8509L19.0336 27.7595C17.1538 27.7355 15.274 27.6922 13.5192 27.6249C10.0625 27.4903 7.5144 27.2788 6.5096 27.0096C5.40383 26.7115 4.52884 25.8365 4.23076 24.7259C4.0048 23.8749 3.82211 22.6057 3.6923 21.0576C3.59134 19.8701 3.52884 18.5913 3.49038 17.3125C3.47595 16.8653 3.47115 16.4471 3.46634 16.0769C3.46634 15.9471 3.46153 15.8317 3.46153 15.7355V15.5048C3.46153 15.4038 3.46153 15.2932 3.46634 15.1634C3.47115 14.7884 3.48076 14.375 3.49038 13.9279C3.52403 12.649 3.59134 11.3702 3.6923 10.1827C3.82211 8.63459 4.0048 7.36537 4.23076 6.51441C4.52884 5.40383 5.40383 4.52403 6.5096 4.23076C7.51921 3.96153 10.0625 3.74518 13.5192 3.61537C15.2692 3.54807 17.1538 3.5048 19.0336 3.48076C19.6923 3.47115 20.3028 3.46634 20.8509 3.46634H22.2259L24.0432 3.48076C25.923 3.5048 27.8028 3.54807 29.5576 3.61537C33.0143 3.74999 35.5624 3.96153 36.5672 4.23076C37.673 4.52884 38.548 5.40383 38.8461 6.51441C39.072 7.36537 39.2547 8.63459 39.3845 10.1827C39.4855 11.3702 39.548 12.649 39.5864 13.9279C39.6009 14.375 39.6057 14.7932 39.6105 15.1634C39.6105 15.2932 39.6153 15.4086 39.6153 15.5048V15.7355ZM17.2596 22.0624L28.4134 15.5721L17.2596 9.17786V22.0624Z" fill="white"/>
</svg>
