<svg width="92" height="39" viewBox="0 0 92 39" fill="none" xmlns="http://www.w3.org/2000/svg">
<path d="M14.6869 0.727966C20.1517 -0.527094 25.209 0.563445 29.7943 3.85687L29.7992 3.86078C29.9045 3.94085 30.0044 4.02908 30.097 4.11078L30.3705 4.34027L30.3715 4.34125C30.4631 4.41187 30.5323 4.44896 30.5804 4.46527C30.6035 4.47305 30.6183 4.47485 30.6263 4.47504C30.6297 4.47511 30.632 4.47521 30.6332 4.47504L30.6342 4.47406L30.6361 4.47308C30.6371 4.47237 30.6393 4.47086 30.642 4.4682C30.6479 4.46224 30.658 4.45046 30.6693 4.42914C30.6925 4.38514 30.7156 4.3138 30.7338 4.20648C30.7484 4.0953 30.7531 3.97821 30.7572 3.84808C30.7612 3.72202 30.7656 3.58248 30.7836 3.44574V3.44183C31.0597 1.60576 32.5364 0.301603 34.2963 0.40863L34.2953 0.409607C36.1446 0.515747 37.522 1.97027 37.5394 3.88617L37.5463 4.8891C37.5486 5.89095 37.5394 6.88834 37.5394 7.89008C37.5557 11.6445 37.5551 15.4156 37.5551 19.1694V34.1528C37.5549 35.8905 36.6388 37.2284 35.1117 37.6733C32.98 38.2931 30.904 36.8002 30.765 34.5463L30.764 34.5327H30.765V34.4633C30.7098 34.262 30.6522 34.0658 30.5931 33.8754C30.5339 33.9056 30.477 33.9367 30.4242 33.9643C30.2929 34.0328 30.1776 34.0998 30.0804 34.1772L30.0765 34.1811L30.0756 34.1801C27.9958 35.7528 25.7016 36.8415 23.1937 37.477H23.1927C13.143 39.966 2.87524 33.4343 0.667358 23.2534L0.568726 22.7661C-1.31534 12.8709 4.65135 3.29314 14.2279 0.840271L14.6869 0.727966ZM18.8314 7.08734C12.3171 7.0875 6.9965 12.4914 6.99646 19.1196L7.00134 19.4282C7.17884 25.8995 12.4193 31.1352 18.7992 31.1352C25.3792 31.1514 30.6988 25.764 30.683 19.1039V19.103C30.6829 12.459 25.363 7.08734 18.8314 7.08734Z" fill="#F9FAFD" stroke="#F9FAFD" stroke-width="0.443757"/>
<path d="M60.7852 0.396301C61.4683 0.317618 62.0897 0.488909 62.6748 0.773254L62.9238 0.902161L62.9258 0.903137C71.6699 5.81429 80.4154 10.7095 89.1602 15.6375C89.6007 15.8824 90.0722 16.1499 90.4814 16.4803L90.6533 16.6258L90.6553 16.6277C92.2054 18.0561 91.9284 20.6557 90.123 21.8699V21.8709C89.2487 22.4562 88.2853 22.9436 87.3828 23.45L87.3838 23.451L62.9424 37.1932V37.1942C61.6968 37.8907 60.3884 37.8594 59.3867 37.2703C58.385 36.6812 57.7179 35.5501 57.7178 34.1063L57.7031 26.577C57.7011 24.0632 57.7012 21.5451 57.7012 19.0233V3.92462C57.7012 2.02912 58.9241 0.626421 60.7832 0.397278L60.7852 0.396301ZM65.29 10.2059C64.9532 10.0232 64.7741 10.0323 64.6865 10.0818C64.5958 10.1333 64.4895 10.2901 64.458 10.6893V10.6942C64.443 10.8463 64.4589 10.9719 64.459 11.1834L64.4727 15.1287C64.4747 16.4436 64.4756 17.7585 64.4756 19.0731V27.0779C64.4756 27.3257 64.5056 27.5879 64.5654 27.8152H64.5664C64.5964 27.9307 64.6452 27.9881 64.6895 28.0154C64.7226 28.0359 64.7698 28.0498 64.835 28.0457L64.9062 28.035C65.0938 27.9909 65.2714 27.9167 65.458 27.8221C67.928 26.467 70.3977 25.1163 72.8672 23.7635L80.2822 19.6893C80.4339 19.6046 80.6008 19.4912 80.7324 19.367C80.8706 19.2366 80.9402 19.1217 80.9531 19.0389L80.9541 19.035C80.9759 18.9113 80.9312 18.8193 80.8047 18.7166C80.6638 18.6024 80.477 18.5187 80.2695 18.409L80.2666 18.408C77.7702 17.0436 75.2736 15.6749 72.7773 14.3065C70.2813 12.9381 67.7859 11.569 65.29 10.2049V10.2059Z" fill="#F9FAFD" stroke="#F9FAFD" stroke-width="0.443757"/>
<path d="M47.103 0.459656C48.9862 0.150203 50.7626 1.5378 50.9672 3.4411L50.9828 3.62762V3.62958C51.0157 4.38011 50.9995 5.13419 50.9995 5.87177V34.0681C50.9995 34.997 50.7246 35.8054 50.2211 36.4206C49.7172 37.0362 48.9942 37.4447 48.1225 37.5934C46.1742 37.9313 44.3122 36.3888 44.225 34.3757V3.93622C44.2252 2.12908 45.3759 0.742573 47.103 0.459656Z" fill="#F9FAFD" stroke="#F9FAFD" stroke-width="0.443757"/>
<path d="M81.7778 30.8365C83.6791 30.8367 85.2132 32.3751 85.2133 34.2828C85.2133 36.1725 83.6976 37.7124 81.8286 37.7301C79.9394 37.7478 78.3893 36.1716 78.4067 34.2643C78.3915 32.3739 79.893 30.8542 81.7758 30.8365H81.7778Z" fill="#F9FAFD" stroke="#F9FAFD" stroke-width="0.443757"/>
</svg>
