<svg width="132" height="48" viewBox="0 0 132 48" fill="none" xmlns="http://www.w3.org/2000/svg">
<g clip-path="url(#clip0_2054_9149)">
<mask id="mask0_2054_9149" style="mask-type:luminance" maskUnits="userSpaceOnUse" x="0" y="0" width="132" height="48">
<path d="M0 0H132V48H0V0Z" fill="white"/>
</mask>
<g mask="url(#mask0_2054_9149)">
<path d="M21.6114 19.1852C20.8625 19.1755 20.1474 18.8696 19.6205 18.3336C19.0936 17.7975 18.7973 17.0742 18.7954 16.32V5.83386C18.7925 5.45856 18.863 5.08636 19.003 4.73851C19.1429 4.39066 19.3496 4.07398 19.6111 3.80654C19.8725 3.53911 20.1838 3.32616 20.527 3.17985C20.8702 3.03355 21.2387 2.95676 21.6114 2.95386C22.3623 2.96549 23.0785 3.27405 23.6053 3.8129C24.1322 4.35175 24.4275 5.07765 24.4274 5.83386V16.32C24.4218 17.0731 24.1242 17.7941 23.5981 18.3294C23.0721 18.8647 22.3591 19.1718 21.6114 19.1852ZM15.1287 24C15.0249 24.3536 14.851 24.6824 14.6176 24.9666C14.3842 25.2507 14.0961 25.4844 13.7706 25.6534C13.4451 25.8225 13.0891 25.9234 12.7238 25.9502C12.3586 25.977 11.9917 25.929 11.6454 25.8092L1.90674 22.56C1.19825 22.3132 0.615514 21.7942 0.28576 21.1162C-0.0439943 20.4383 -0.0939732 19.6565 0.146737 18.9415C0.256797 18.5918 0.434242 18.2674 0.668924 17.9867C0.903606 17.7061 1.19092 17.4748 1.51444 17.3061C1.83795 17.1374 2.19133 17.0345 2.55435 17.0035C2.91736 16.9724 3.28291 17.0136 3.63007 17.1249L13.3687 20.3742C14.0539 20.6521 14.6128 21.1755 14.9377 21.8436C15.2627 22.5116 15.3307 23.2771 15.1287 23.9926V24ZM28.1601 24C28.27 24.3496 28.4475 24.6739 28.6823 24.9543C28.9172 25.2346 29.2047 25.4655 29.5283 25.6336C29.852 25.8017 30.2055 25.9038 30.5685 25.9339C30.9314 25.9641 31.2967 25.9217 31.6434 25.8092L41.3821 22.6265C42.0921 22.381 42.677 21.863 43.0094 21.1853C43.3418 20.5075 43.3947 19.7249 43.1567 19.008C43.0475 18.6577 42.8706 18.3326 42.6361 18.0515C42.4016 17.7703 42.1142 17.5387 41.7904 17.3698C41.4667 17.201 41.113 17.0983 40.7496 17.0677C40.3863 17.037 40.0205 17.0791 39.6734 17.1914L29.9347 20.4406C29.5836 20.5533 29.2584 20.7355 28.9783 20.9765C28.6981 21.2175 28.4686 21.5125 28.3032 21.8441C28.1379 22.1757 28.0401 22.5373 28.0155 22.9075C27.9909 23.2777 28.0401 23.6492 28.1601 24ZM8.28674 45.0462C7.68624 44.5915 7.2858 43.9187 7.17074 43.171C7.05567 42.4234 7.23508 41.6601 7.67074 41.0437L13.6621 32.5514C13.8781 32.251 14.1507 31.9964 14.4645 31.8022C14.7783 31.6081 15.1271 31.4781 15.4908 31.4198C15.8545 31.3615 16.2261 31.376 16.5843 31.4625C16.9424 31.5489 17.2801 31.7057 17.5781 31.9237C18.1753 32.3793 18.5729 33.0512 18.6866 33.797C18.8002 34.5428 18.6209 35.3038 18.1867 35.9188L12.1954 44.4185C11.9807 44.7205 11.7086 44.9766 11.3948 45.1719C11.081 45.3672 10.7319 45.4978 10.3676 45.5562C10.0034 45.6146 9.6312 45.5996 9.27274 45.512C8.91427 45.4245 8.57663 45.2661 8.2794 45.0462H8.28674ZM34.9434 45.0462C35.5439 44.5915 35.9443 43.9187 36.0594 43.171C36.1745 42.4234 35.9951 41.6601 35.5594 41.0437L29.5681 32.5514C29.1306 31.9463 28.4729 31.5405 27.7389 31.4228C27.0048 31.3052 26.2545 31.4853 25.6521 31.9237C25.0552 32.3793 24.6573 33.0506 24.5424 33.7959C24.4275 34.5412 24.6045 35.3023 25.0361 35.9188L31.0347 44.4185C31.2494 44.7194 31.5212 44.9746 31.8343 45.1693C32.1475 45.3639 32.4958 45.4942 32.8592 45.5525C33.2226 45.6109 33.5939 45.5962 33.9516 45.5093C34.3093 45.4224 34.6464 45.265 34.9434 45.0462Z" fill="white"/>
<path d="M70.7227 17.952C70.1349 17.9536 69.5605 18.1286 69.0704 18.4554C68.5804 18.7822 68.1962 19.2465 67.9654 19.7908C67.738 20.3373 67.672 20.9354 67.7894 21.5188C67.912 22.0995 68.2022 22.6308 68.6236 23.0459C69.045 23.4611 69.5788 23.7417 70.158 23.8524C70.9324 24.0054 71.7356 23.8458 72.3941 23.4078C73.0527 22.9699 73.5138 22.2887 73.678 21.5114C73.7662 21.0747 73.7556 20.6236 73.647 20.1916C73.5384 19.7595 73.3347 19.3576 73.0508 19.0157C72.7669 18.6738 72.4102 18.4007 72.0072 18.2165C71.6042 18.0324 71.1652 17.942 70.7227 17.952ZM78.452 17.952C77.7161 17.9564 77.0073 18.2324 76.4599 18.7278C75.9125 19.2232 75.5646 19.9036 75.482 20.64C75.4051 21.3792 75.6077 22.1204 76.0495 22.7158C76.4912 23.3112 77.1396 23.717 77.8654 23.8524C78.44 23.9649 79.0348 23.9061 79.5767 23.683C80.1186 23.46 80.5841 23.0826 80.916 22.597C81.299 22.0211 81.4731 21.3299 81.409 20.6398C81.3449 19.9497 81.0465 19.303 80.564 18.8087C79.9988 18.2554 79.2403 17.9477 78.452 17.952Z" fill="white"/>
<path d="M73.2748 25.7798H75.8928C75.9922 25.7764 76.0904 25.8036 76.1742 25.8576C76.258 25.9117 76.3235 25.9901 76.3621 26.0825C76.3841 26.149 76.3988 26.2081 76.3988 26.2745V37.0561C76.4009 37.122 76.3884 37.1876 76.3621 37.2481C76.3384 37.3101 76.3008 37.3657 76.2521 37.4105C76.2071 37.459 76.152 37.4968 76.0908 37.5213C76.0281 37.5477 75.9606 37.5602 75.8928 37.5582H73.2821C73.2142 37.5607 73.1466 37.5481 73.0841 37.5213C73.0225 37.4975 72.9673 37.4595 72.9228 37.4105C72.8298 37.3162 72.7772 37.189 72.7761 37.0561V26.2745C72.7773 26.1762 72.8071 26.0804 72.8619 25.9991C72.9166 25.9177 72.9939 25.8543 73.0841 25.8167C73.1446 25.7919 73.2094 25.7794 73.2748 25.7798ZM68.2148 25.7798H70.8841C70.9377 25.7735 70.9921 25.7787 71.0436 25.7952C71.095 25.8117 71.1424 25.839 71.1827 25.8753C71.2229 25.9116 71.255 25.9561 71.2768 26.0058C71.2987 26.0555 71.3098 26.1094 71.3094 26.1638C71.3094 26.2376 71.2874 26.3041 71.2508 26.3631L67.4668 33.4745V37.0634C67.4668 37.1299 67.4521 37.1964 67.4301 37.2554C67.4055 37.317 67.368 37.3724 67.3201 37.4179C67.2721 37.4627 67.2177 37.5 67.1588 37.5287C67.0952 37.5517 67.0283 37.5642 66.9608 37.5656H64.3428C64.209 37.5627 64.081 37.5101 63.9834 37.4179C63.9416 37.3691 63.907 37.3143 63.8808 37.2554C63.8524 37.1954 63.8374 37.1299 63.8368 37.0634V33.4819L60.0528 26.3779C60.0161 26.3161 59.997 26.2452 59.9977 26.1732C59.9984 26.1012 60.0189 26.0308 60.0568 25.9697C60.0947 25.9086 60.1486 25.8592 60.2126 25.827C60.2766 25.7948 60.3482 25.781 60.4194 25.7871H63.0888C63.1985 25.7896 63.3048 25.8255 63.3939 25.8901C63.4829 25.9547 63.5504 26.045 63.5874 26.149L65.6408 30.7422L67.7014 26.149C67.7381 26.0412 67.8073 25.9477 67.8993 25.8815C67.9914 25.8153 68.1017 25.7798 68.2148 25.7798ZM109.435 26.2893V28.5564C109.436 28.6223 109.423 28.6876 109.398 28.7485C109.372 28.8094 109.335 28.8646 109.289 28.9108C109.193 29.0068 109.069 29.0585 108.937 29.0585H106.179V37.0708C106.179 37.2038 106.128 37.3293 106.033 37.4253C105.937 37.5139 105.813 37.573 105.673 37.573H103.385C103.32 37.5746 103.255 37.5621 103.195 37.5361C103.133 37.5092 103.076 37.4717 103.026 37.4253C102.982 37.3769 102.945 37.3222 102.916 37.2628C102.891 37.2021 102.878 37.1367 102.879 37.0708V29.0659H100.093C100.025 29.0687 99.9572 29.056 99.8948 29.029C99.8341 29.0035 99.7792 28.9658 99.7334 28.9182C99.6861 28.8725 99.6486 28.8174 99.6234 28.7564C99.5981 28.6954 99.5857 28.6298 99.5868 28.5638V26.2819C99.5887 26.1493 99.6418 26.0227 99.7349 25.9289C99.828 25.8352 99.9538 25.7817 100.085 25.7798H108.929C109.029 25.78 109.127 25.8094 109.21 25.8645C109.293 25.9196 109.359 25.9979 109.399 26.0899C109.421 26.149 109.435 26.2154 109.435 26.2819V26.2893ZM86.2108 25.7798H88.6528C88.7234 25.7724 88.7947 25.7842 88.8592 25.8141C88.9237 25.844 88.979 25.8908 89.0194 25.9496C89.0619 26.0088 89.0877 26.0785 89.0942 26.1513C89.1007 26.2241 89.0875 26.2973 89.0561 26.3631L85.3454 37.1151C85.3014 37.2538 85.2125 37.3736 85.0928 37.4553C84.9731 37.537 84.8297 37.5758 84.6854 37.5656H82.2801C82.1366 37.5776 81.9932 37.5403 81.8734 37.4599C81.7536 37.3795 81.6643 37.2606 81.6201 37.1225L77.9241 26.3631C77.8923 26.298 77.8783 26.2255 77.8838 26.1532C77.8892 26.0808 77.9138 26.0112 77.9549 25.9517C77.9961 25.8921 78.0524 25.8448 78.1179 25.8145C78.1834 25.7843 78.2557 25.7723 78.3274 25.7798H80.7474C80.8648 25.7945 80.9821 25.8388 81.0774 25.9127C81.1581 25.9791 81.2241 26.0604 81.2681 26.1638L83.5048 32.9798L85.7414 26.1638C85.7812 26.0642 85.8471 25.9774 85.9321 25.9127C86.0128 25.8388 86.1081 25.8019 86.2108 25.7798ZM59.0334 26.4591L55.2568 31.0154L60.0088 36.8567C60.0591 36.917 60.0912 36.9906 60.1014 37.0687C60.1115 37.1468 60.0994 37.2263 60.0662 37.2976C60.0331 37.369 59.9804 37.4294 59.9144 37.4716C59.8483 37.5138 59.7717 37.5362 59.6934 37.5361H56.7308C56.5909 37.5291 56.4548 37.4885 56.3336 37.4179C56.2124 37.3473 56.1098 37.2485 56.0341 37.1299L52.5361 32.8321V36.9305C52.5455 37.0123 52.5364 37.0952 52.5095 37.173C52.4826 37.2507 52.4386 37.3214 52.3807 37.3796C52.3229 37.4378 52.2528 37.4822 52.1755 37.5093C52.0983 37.5363 52.016 37.5455 51.9348 37.5361H49.8594C49.7776 37.5467 49.6945 37.5385 49.6163 37.5119C49.5381 37.4854 49.467 37.4412 49.4083 37.3829C49.3497 37.3245 49.305 37.2534 49.2777 37.175C49.2504 37.0966 49.2412 37.013 49.2508 36.9305V26.3853C49.2412 26.3028 49.2504 26.2192 49.2777 26.1408C49.305 26.0624 49.3497 25.9913 49.4083 25.9329C49.467 25.8746 49.5381 25.8304 49.6163 25.8039C49.6945 25.7773 49.7776 25.7691 49.8594 25.7798H51.9421C52.0239 25.7691 52.107 25.7773 52.1852 25.8039C52.2634 25.8304 52.3345 25.8746 52.3932 25.9329C52.4518 25.9913 52.4965 26.0624 52.5238 26.1408C52.5512 26.2192 52.5604 26.3028 52.5508 26.3853V29.4499L55.1468 26.1711C55.2393 26.0524 55.3573 25.9562 55.4919 25.8898C55.6265 25.8233 55.7742 25.7882 55.9241 25.7871H58.7548C59.1581 25.7871 59.3194 26.1564 59.0481 26.4518L59.0334 26.4591ZM92.9134 28.9108C92.9134 29.3539 93.2581 29.6714 95.0401 30.1367C97.8561 30.8604 99.0001 32.1453 99.0001 34.0579C99.0001 36.3471 97.0934 37.9348 94.3434 37.9348C93.3004 37.9253 92.2755 37.6593 91.3578 37.1599C90.4401 36.6606 89.6575 35.943 89.0781 35.0696C89.0433 35.0142 89.0201 34.9522 89.01 34.8874C88.9999 34.8226 89.0031 34.7565 89.0194 34.693C89.0527 34.564 89.1341 34.4528 89.2468 34.3828L90.9848 33.2899C91.0456 33.246 91.1148 33.2155 91.1881 33.2002C91.2614 33.1849 91.337 33.1853 91.4101 33.2013C91.5274 33.2456 91.6301 33.3268 91.7034 33.4228C92.4881 34.3976 93.3168 35.0696 94.4681 35.0696C95.1428 35.0696 95.5461 34.7373 95.5461 34.1982C95.5461 33.6591 95.3554 33.1791 93.2214 32.6105C90.9334 31.9976 89.6574 30.6905 89.6574 28.9847C89.6574 27.2788 91.1461 25.4401 93.8961 25.4401C96.6461 25.4401 97.8121 26.4961 98.4428 27.0794C98.4908 27.1251 98.5291 27.18 98.5556 27.2409C98.582 27.3018 98.5961 27.3674 98.5968 27.4339C98.5968 27.5594 98.5454 27.685 98.4574 27.7736L97.1081 29.1914C97.0611 29.2495 97.0018 29.2961 96.9345 29.3281C96.8673 29.36 96.7938 29.3764 96.7194 29.3761C96.5952 29.372 96.4761 29.325 96.3821 29.2431C95.7043 28.6373 94.8384 28.2875 93.9328 28.2536C93.4414 28.2536 92.9208 28.4751 92.9208 28.9182L92.9134 28.9108Z" fill="white"/>
<path fill-rule="evenodd" clip-rule="evenodd" d="M116.871 26.2302C116.826 26.0929 116.737 25.9748 116.617 25.8945C116.497 25.8143 116.355 25.7765 116.211 25.7872H113.146C113.003 25.7765 112.86 25.8143 112.741 25.8945C112.621 25.9748 112.531 26.0929 112.486 26.2302L108.438 36.9749C108.406 37.0401 108.391 37.1129 108.396 37.1857C108.402 37.2585 108.426 37.3285 108.467 37.3884C108.508 37.4492 108.564 37.4977 108.63 37.5289C108.696 37.5601 108.769 37.5728 108.841 37.5656H111.415C111.525 37.5595 111.632 37.5238 111.723 37.4622C111.811 37.3958 111.877 37.3146 111.921 37.2112L112.464 35.6309H116.937L117.48 37.2112C117.521 37.3116 117.59 37.3982 117.679 37.461C117.767 37.5237 117.871 37.56 117.979 37.5656H120.56C120.633 37.5739 120.706 37.5622 120.773 37.5316C120.839 37.501 120.896 37.4528 120.938 37.3922C120.979 37.3315 121.004 37.2606 121.008 37.1871C121.013 37.1136 120.997 37.0402 120.963 36.9749L116.871 26.2302ZM114.708 29.0659L113.403 32.9281H116.013L114.708 29.0659ZM129.045 33.6518C129.902 33.47 130.668 32.9898 131.208 32.2956C131.749 31.6014 132.029 30.7377 132 29.8561C132 27.3822 129.925 25.7798 127.446 25.7798H122.511C122.379 25.7801 122.252 25.8332 122.159 25.9275C122.065 26.0214 122.012 26.1489 122.012 26.2819V37.0635C122.012 37.1964 122.063 37.3219 122.159 37.4179C122.254 37.5066 122.379 37.5656 122.511 37.5656H124.806C124.905 37.5669 125.002 37.5379 125.085 37.4826C125.167 37.4272 125.231 37.3481 125.268 37.2555C125.294 37.1949 125.306 37.1294 125.305 37.0635V33.8733L127.769 37.1521C127.845 37.2703 127.948 37.3687 128.069 37.4393C128.19 37.5099 128.326 37.5506 128.465 37.5582H131.135C131.212 37.5574 131.287 37.5348 131.352 37.493C131.417 37.4513 131.468 37.392 131.501 37.3219C131.536 37.2513 131.55 37.1724 131.542 37.0941C131.535 37.0157 131.505 36.9412 131.457 36.8789L129.037 33.6518H129.045ZM125.305 31.2001H127.197C128.414 31.2001 128.729 30.5059 128.729 29.8339C128.729 29.0438 128.319 28.5047 127.145 28.5047H125.305V31.2001Z" fill="white"/>
</g>
</g>
<defs>
<clipPath id="clip0_2054_9149">
<rect width="132" height="48" fill="white"/>
</clipPath>
</defs>
</svg>
