<svg width="126" height="125" viewBox="0 0 126 125" fill="none" xmlns="http://www.w3.org/2000/svg">
<rect width="126" height="125" fill="#5738CB"/>
<path d="M89.022 31.1701C89.9154 30.2152 91.3301 29.7875 92.6877 30.1022C94.2388 30.4622 95.359 31.7087 95.4532 33.1827L98.4103 79.4911C98.517 81.1691 97.2712 82.6636 95.4874 83.0013L32.4015 94.9315C31.3232 95.1353 30.2014 94.8787 29.3485 94.2364C28.4964 93.594 28 92.6328 28 91.6172V50.9231C28 49.5797 28.8642 48.3625 30.1973 47.8237C31.53 47.2856 33.0814 47.526 34.1505 48.4366L47.4371 59.757L57.8316 35.6407L58.0644 35.1953C58.6823 34.2089 59.809 33.5656 61.066 33.5113C62.5021 33.4493 63.8443 34.1685 64.4989 35.3501L74.3424 53.1411L88.6729 31.6124L89.022 31.1701ZM77.1729 61.8138C76.4795 62.8558 75.2314 63.47 73.9077 63.422C72.5843 63.374 71.3926 62.6717 70.7897 61.5832L61.6513 45.0718L52.2767 66.8311C51.8306 67.8662 50.8592 68.6316 49.6824 68.8784C48.5055 69.1252 47.2732 68.822 46.3864 68.0664L35.3313 58.6449V87.4688L90.9045 76.9635L88.8201 44.3072L77.1729 61.8138Z" fill="#FBDEFF"/>
<path d="M89.022 31.1701C89.9154 30.2152 91.3301 29.7875 92.6877 30.1022C94.2388 30.4622 95.359 31.7087 95.4532 33.1827L98.4103 79.4911C98.517 81.1691 97.2712 82.6636 95.4874 83.0013L32.4015 94.9315C31.3232 95.1353 30.2014 94.8787 29.3485 94.2364C28.4964 93.594 28 92.6328 28 91.6172V50.9231C28 49.5797 28.8642 48.3625 30.1973 47.8237C31.53 47.2856 33.0814 47.526 34.1505 48.4366L47.4371 59.757L57.8316 35.6407L58.0644 35.1953C58.6823 34.2089 59.809 33.5656 61.066 33.5113C62.5021 33.4493 63.8443 34.1685 64.4989 35.3501L74.3424 53.1411L88.6729 31.6124L89.022 31.1701ZM77.1729 61.8138C76.4795 62.8558 75.2314 63.47 73.9077 63.422C72.5843 63.374 71.3926 62.6717 70.7897 61.5832L61.6513 45.0718L52.2767 66.8311C51.8306 67.8662 50.8592 68.6316 49.6824 68.8784C48.5055 69.1252 47.2732 68.822 46.3864 68.0664L35.3313 58.6449V87.4688L90.9045 76.9635L88.8201 44.3072L77.1729 61.8138Z" fill="white"/>
</svg>
