<svg width="125" height="27" viewBox="0 0 125 27" fill="none" xmlns="http://www.w3.org/2000/svg">
<path d="M22.5312 0.432033C22.8611 0.079453 23.3834 -0.0784542 23.8847 0.0377302C24.4574 0.170664 24.871 0.630909 24.9058 1.17514L25.9977 18.2736C26.037 18.8932 25.5771 19.445 24.9184 19.5697L1.62517 23.9747C1.22702 24.05 0.812807 23.9552 0.497913 23.718C0.183293 23.4809 0 23.1259 0 22.751V7.72546C0 7.22943 0.319091 6.78001 0.811321 6.58105C1.30339 6.38237 1.87621 6.47115 2.27094 6.80737L7.17678 10.9872L11.0148 2.08274L11.1007 1.91825C11.3289 1.55404 11.7449 1.31654 12.209 1.29647C12.7393 1.27358 13.2348 1.53914 13.4765 1.97541L17.111 8.5444L22.4023 0.595353L22.5312 0.432033ZM18.1561 11.7466C17.9001 12.1314 17.4393 12.3582 16.9505 12.3404C16.4619 12.3227 16.0219 12.0634 15.7993 11.6615L12.4251 5.56497L8.96371 13.5992C8.79897 13.9814 8.44032 14.264 8.00579 14.3551C7.57126 14.4462 7.11627 14.3343 6.78881 14.0553L2.70693 10.5766V21.2192L23.2263 17.3404L22.4567 5.28265L18.1561 11.7466Z" fill="#FBDEFF"/>
<path d="M22.5312 0.432033C22.8611 0.079453 23.3834 -0.0784542 23.8847 0.0377302C24.4574 0.170664 24.871 0.630909 24.9058 1.17514L25.9977 18.2736C26.037 18.8932 25.5771 19.445 24.9184 19.5697L1.62517 23.9747C1.22702 24.05 0.812807 23.9552 0.497913 23.718C0.183293 23.4809 0 23.1259 0 22.751V7.72546C0 7.22943 0.319091 6.78001 0.811321 6.58105C1.30339 6.38237 1.87621 6.47115 2.27094 6.80737L7.17678 10.9872L11.0148 2.08274L11.1007 1.91825C11.3289 1.55404 11.7449 1.31654 12.209 1.29647C12.7393 1.27358 13.2348 1.53914 13.4765 1.97541L17.111 8.5444L22.4023 0.595353L22.5312 0.432033ZM18.1561 11.7466C17.9001 12.1314 17.4393 12.3582 16.9505 12.3404C16.4619 12.3227 16.0219 12.0634 15.7993 11.6615L12.4251 5.56497L8.96371 13.5992C8.79897 13.9814 8.44032 14.264 8.00579 14.3551C7.57126 14.4462 7.11627 14.3343 6.78881 14.0553L2.70693 10.5766V21.2192L23.2263 17.3404L22.4567 5.28265L18.1561 11.7466Z" fill="white"/>
<path d="M36.3287 21V2.54H44.4927C45.3421 2.54 46.1221 2.71333 46.8327 3.06C47.5607 3.40667 48.1847 3.87467 48.7047 4.464C49.2421 5.05333 49.6494 5.712 49.9267 6.44C50.2214 7.168 50.3687 7.91333 50.3687 8.676C50.3687 9.456 50.2301 10.21 49.9527 10.938C49.6927 11.6487 49.3114 12.2727 48.8087 12.81C48.3061 13.3473 47.7167 13.7633 47.0407 14.058L51.2527 21H47.3007L43.5047 14.812H39.9167V21H36.3287ZM39.9167 11.666H44.4147C44.8654 11.666 45.2641 11.536 45.6107 11.276C45.9574 10.9987 46.2347 10.6347 46.4427 10.184C46.6507 9.73333 46.7547 9.23067 46.7547 8.676C46.7547 8.08667 46.6334 7.57533 46.3907 7.142C46.1481 6.69133 45.8361 6.336 45.4547 6.076C45.0907 5.816 44.6921 5.686 44.2587 5.686H39.9167V11.666Z" fill="white"/>
<path d="M58.5967 21.26C57.4874 21.26 56.4907 21.078 55.6067 20.714C54.7227 20.3327 53.9687 19.8127 53.3447 19.154C52.738 18.4953 52.27 17.7413 51.9407 16.892C51.6114 16.0427 51.4467 15.15 51.4467 14.214C51.4467 13.2607 51.6114 12.3593 51.9407 11.51C52.27 10.6607 52.738 9.90667 53.3447 9.248C53.9687 8.58933 54.7227 8.078 55.6067 7.714C56.4907 7.33267 57.4874 7.142 58.5967 7.142C59.706 7.142 60.694 7.33267 61.5607 7.714C62.4447 8.078 63.1987 8.58933 63.8227 9.248C64.4467 9.90667 64.9147 10.6607 65.2267 11.51C65.556 12.3593 65.7207 13.2607 65.7207 14.214C65.7207 15.15 65.556 16.0427 65.2267 16.892C64.9147 17.7413 64.4467 18.4953 63.8227 19.154C63.216 19.8127 62.4707 20.3327 61.5867 20.714C60.7027 21.078 59.706 21.26 58.5967 21.26ZM55.0347 14.214C55.0347 15.0113 55.1907 15.722 55.5027 16.346C55.8147 16.9527 56.2394 17.4293 56.7767 17.776C57.314 18.1227 57.9207 18.296 58.5967 18.296C59.2554 18.296 59.8534 18.1227 60.3907 17.776C60.928 17.412 61.3527 16.9267 61.6647 16.32C61.994 15.696 62.1587 14.9853 62.1587 14.188C62.1587 13.408 61.994 12.706 61.6647 12.082C61.3527 11.458 60.928 10.9727 60.3907 10.626C59.8534 10.2793 59.2554 10.106 58.5967 10.106C57.9207 10.106 57.314 10.288 56.7767 10.652C56.2394 10.9987 55.8147 11.484 55.5027 12.108C55.1907 12.7147 55.0347 13.4167 55.0347 14.214Z" fill="white"/>
<path d="M67.3305 23.652C67.6425 23.7213 67.9285 23.782 68.1885 23.834C68.4658 23.886 68.6998 23.912 68.8905 23.912C69.2198 23.912 69.4885 23.8253 69.6965 23.652C69.9218 23.496 70.1385 23.2013 70.3465 22.768C70.5545 22.352 70.7711 21.7627 70.9965 21L65.6145 7.376H69.2285L72.8945 17.438L76.1185 7.376H79.4465L73.7265 23.704C73.5185 24.3107 73.1978 24.8567 72.7645 25.342C72.3485 25.8447 71.8198 26.2347 71.1785 26.512C70.5545 26.8067 69.8525 26.954 69.0725 26.954C68.7951 26.954 68.5178 26.928 68.2405 26.876C67.9631 26.8413 67.6598 26.772 67.3305 26.668V23.652Z" fill="white"/>
<path d="M79.5533 16.97C79.5533 16.086 79.796 15.3147 80.2813 14.656C80.784 13.98 81.4773 13.46 82.3613 13.096C83.2453 12.732 84.2593 12.55 85.4033 12.55C85.9753 12.55 86.556 12.5933 87.1453 12.68C87.7347 12.7667 88.246 12.9053 88.6793 13.096V12.368C88.6793 11.5013 88.4193 10.834 87.8993 10.366C87.3967 9.898 86.6427 9.664 85.6373 9.664C84.892 9.664 84.1813 9.794 83.5053 10.054C82.8293 10.314 82.1187 10.6953 81.3733 11.198L80.2553 8.91C81.1567 8.32067 82.0753 7.87867 83.0113 7.584C83.9647 7.28933 84.9613 7.142 86.0013 7.142C87.9427 7.142 89.4507 7.62733 90.5253 8.598C91.6173 9.56867 92.1633 10.9553 92.1633 12.758V17.1C92.1633 17.464 92.224 17.724 92.3453 17.88C92.484 18.036 92.7007 18.1313 92.9953 18.166V21C92.6833 21.052 92.3973 21.0953 92.1373 21.13C91.8947 21.1647 91.6867 21.182 91.5133 21.182C90.82 21.182 90.2913 21.026 89.9273 20.714C89.5807 20.402 89.364 20.0207 89.2773 19.57L89.1993 18.868C88.61 19.6307 87.8733 20.22 86.9893 20.636C86.1053 21.052 85.204 21.26 84.2853 21.26C83.384 21.26 82.5693 21.078 81.8413 20.714C81.1307 20.3327 80.5673 19.8213 80.1513 19.18C79.7527 18.5213 79.5533 17.7847 79.5533 16.97ZM88.0293 17.672C88.22 17.464 88.376 17.256 88.4973 17.048C88.6187 16.84 88.6793 16.6493 88.6793 16.476V15.098C88.2633 14.9247 87.8127 14.7947 87.3273 14.708C86.842 14.604 86.3827 14.552 85.9493 14.552C85.048 14.552 84.3027 14.7513 83.7133 15.15C83.1413 15.5313 82.8553 16.0427 82.8553 16.684C82.8553 17.0307 82.9507 17.36 83.1413 17.672C83.332 17.984 83.6093 18.2353 83.9733 18.426C84.3373 18.6167 84.7707 18.712 85.2733 18.712C85.7933 18.712 86.3047 18.6167 86.8073 18.426C87.31 18.218 87.7173 17.9667 88.0293 17.672Z" fill="white"/>
<path d="M94.873 2.02H98.357V16.632C98.357 17.256 98.461 17.6807 98.669 17.906C98.877 18.114 99.163 18.218 99.527 18.218C99.8043 18.218 100.09 18.1833 100.385 18.114C100.68 18.0447 100.94 17.958 101.165 17.854L101.633 20.506C101.165 20.7313 100.619 20.9047 99.995 21.026C99.371 21.1473 98.8077 21.208 98.305 21.208C97.213 21.208 96.3637 20.922 95.757 20.35C95.1677 19.7607 94.873 18.9287 94.873 17.854V2.02Z" fill="white"/>
<path d="M110.643 20.298C110.348 20.4193 109.993 20.558 109.577 20.714C109.161 20.87 108.71 20.9913 108.225 21.078C107.757 21.182 107.28 21.234 106.795 21.234C106.153 21.234 105.564 21.1213 105.027 20.896C104.489 20.6707 104.056 20.3153 103.727 19.83C103.415 19.3273 103.259 18.6773 103.259 17.88V10.054H101.465V7.376H103.259V2.956H106.743V7.376H109.603V10.054H106.743V16.71C106.76 17.178 106.89 17.516 107.133 17.724C107.375 17.932 107.679 18.036 108.043 18.036C108.407 18.036 108.762 17.9753 109.109 17.854C109.455 17.7327 109.733 17.6287 109.941 17.542L110.643 20.298Z" fill="white"/>
<path d="M112.172 23.652C112.484 23.7213 112.77 23.782 113.03 23.834C113.308 23.886 113.542 23.912 113.732 23.912C114.062 23.912 114.33 23.8253 114.538 23.652C114.764 23.496 114.98 23.2013 115.188 22.768C115.396 22.352 115.613 21.7627 115.838 21L110.456 7.376H114.07L117.736 17.438L120.96 7.376H124.288L118.568 23.704C118.36 24.3107 118.04 24.8567 117.606 25.342C117.19 25.8447 116.662 26.2347 116.02 26.512C115.396 26.8067 114.694 26.954 113.914 26.954C113.637 26.954 113.36 26.928 113.082 26.876C112.805 26.8413 112.502 26.772 112.172 26.668V23.652Z" fill="white"/>
</svg>
