<svg width="172" height="40" viewBox="0 0 172 40" fill="none" xmlns="http://www.w3.org/2000/svg">
<path fill-rule="evenodd" clip-rule="evenodd" d="M22.156 2.31775C18.5504 -0.447438 16.8334 0.519473 16.8334 0.519473C16.8334 0.519473 16.4132 16.5232 6.38717 18.9992C4.17322 19.5459 1.26345 17.1919 0.147437 15.7415C0.097736 15.6783 0.048035 15.6602 0.0209254 15.6783C-0.00618428 15.6964 -0.0107026 15.7461 0.0299619 15.8138C1.1279 17.6483 2.29814 18.6739 4.30877 19.9074C6.9881 21.552 9.06651 23.3684 6.27422 33.8192L8.96711 33.7875C8.96711 33.7875 10.0786 27.6246 15.4689 20.2372C21.0128 12.6285 24.3564 14.368 24.3564 14.368C25.5311 15.5518 23.4663 15.9584 21.6906 17.21C20.1227 18.3124 21.6318 21.3487 21.6318 21.3487C21.6318 21.3487 22.6213 19.4285 24.7359 18.4932C26.2134 17.838 28.3144 17.2823 28.3144 17.2823C26.5703 13.1797 28.215 10.6991 28.215 10.6991C29.7376 12.014 29.2316 12.7776 30.7316 14.0607C32.2317 15.3439 34.5405 14.4132 34.5405 14.4132C31.9335 11.169 34.911 8.06951 34.911 8.06951C27.7496 8.684 25.757 5.08293 22.156 2.31775Z" fill="white"/>
<path fill-rule="evenodd" clip-rule="evenodd" d="M28.9243 6.57409C37.8027 5.02432 38.747 0 38.747 0C38.9458 1.32385 38.9232 4.52279 36.2619 6.27137C35.3041 6.89941 34.4998 7.22472 33.2211 7.43256C32.5027 7.55004 30.0583 7.56811 28.9243 6.57409Z" fill="white"/>
<path d="M41.5891 27.06C41.5891 28.9035 42.7503 29.4909 43.6901 29.4909C44.8513 29.4909 45.7911 28.6414 45.7911 27.2995C45.7911 25.5103 44.8333 24.6834 42.5651 22.84C38.7155 19.7088 36.9805 18.4889 36.9805 14.2688C36.9805 9.47944 40.943 7.65405 43.523 7.65405C47.3364 7.65405 50.0654 10.3063 50.0654 14.3818V15.43C50.0654 15.9451 49.9344 16.1303 49.347 16.1303H46.0487C45.5878 16.1303 45.5155 15.9451 45.5155 15.43V14.3998C45.5155 13.1302 44.8513 12.0774 43.523 12.0774C42.6012 12.0774 41.5304 12.7236 41.5304 14.3998C41.5304 16.1484 42.6193 16.9436 44.2594 18.2133C47.7069 20.8836 50.4495 22.8942 50.4495 27.5571C50.4495 31.0045 47.7204 33.9504 43.6495 33.9504C39.208 33.9504 36.9805 30.8012 36.9805 27.3357V26.3597C36.9805 25.7317 37.0935 25.4741 37.6085 25.4741H40.9611C41.4762 25.4741 41.5891 25.6775 41.5891 26.2287V27.06V27.06Z" fill="white"/>
<path d="M61.6187 31.5554C61.325 32.807 59.6307 33.9682 57.7104 33.9682C55.3157 33.9682 52.4195 32.4771 52.4195 28.0176V27.3715C52.4195 23.4632 55.754 21.7507 58.614 21.7507H60.6247V20.6076C60.6428 19.2612 59.8701 18.4162 58.3023 18.4162C56.9197 18.4162 56.0929 18.9494 55.4829 19.4283C55.3157 19.5774 55.1531 19.6497 54.9859 19.6497C54.8187 19.6497 54.656 19.5774 54.525 19.3922L53.1605 17.4764C52.921 17.1466 52.8307 16.6089 53.418 16.1481C54.7283 15.1721 56.2555 14.3227 59.0026 14.3227C62.2829 14.3227 65.2514 15.8318 65.2514 20.6618V32.8612C65.2514 33.322 64.8809 33.5434 64.664 33.5434H62.7663C62.1745 33.5434 61.9937 33.3582 61.7723 32.7166L61.6187 31.5554ZM57.0281 27.9227C57.0281 29.1381 57.8008 29.9153 58.7586 29.9153C59.6623 29.9153 60.6202 29.1426 60.6202 27.0597V25.4557H59.2014C58.1893 25.4557 57.0281 26.007 57.0281 27.4844V27.9227V27.9227Z" fill="white"/>
<path d="M75.8421 31.6458C75.0695 32.2151 74.1297 32.5675 73.0408 32.5675C69.5753 32.5675 67.881 29.6577 67.881 26.8925V20.3862C67.881 17.0156 69.4307 14.3227 73.2984 14.3227C74.568 14.3227 75.8241 14.9688 76.8542 15.9628L77.0756 15.2263C77.2067 14.8197 77.4281 14.6751 77.8844 14.6751H79.9312C80.261 14.6751 80.5005 14.8784 80.5005 15.2851V31.7587C80.5005 37.4698 77.4235 39.2591 73.9038 39.2591C72.1146 39.2591 70.1808 38.8705 68.7078 37.8222C68.0798 37.4156 68.1746 36.9728 68.3373 36.661L69.2771 34.5962C69.3901 34.3748 69.5346 34.2844 69.7199 34.2844C69.8509 34.2844 69.9955 34.3567 70.1446 34.4516C70.863 35.0028 72.0242 35.4637 73.2938 35.4637C74.7487 35.4637 75.8376 34.7272 75.8376 32.4952V31.6458H75.8421ZM72.5438 26.8925C72.5438 27.76 73.2261 28.4784 74.0936 28.4784C75.2006 28.4784 75.8467 27.6516 75.8467 26.6711V20.0745C75.8105 19.1889 75.1644 18.4162 74.1342 18.4162C73.2667 18.4162 72.5483 19.1527 72.5483 20.0022V26.8925H72.5438Z" fill="white"/>
<path d="M91.3759 27.7194C91.3759 27.498 91.543 27.2766 91.8909 27.2766H95.0989C95.3926 27.2766 95.5779 27.385 95.5779 27.7555V28.2887C95.5779 31.4018 93.1651 33.8913 89.6273 33.8913C86.1618 33.8913 83.3604 31.4018 83.3604 28.2887V19.9073C83.3604 16.8303 86.1618 14.3227 89.6273 14.3227C93.1651 14.3227 95.6185 16.8303 95.6185 19.9073V24.4798C95.6185 24.9045 95.3248 25.162 94.9001 25.162H88.0278V28.2932C88.0278 29.102 88.7282 29.9153 89.7402 29.9153C90.793 29.9153 91.3804 29.0658 91.3804 28.2571V27.7194H91.3759ZM88.0188 22.0083H91.3713V19.9615C91.3713 19.1121 90.7252 18.3214 89.7312 18.3214C88.7191 18.3214 88.0188 19.1121 88.0188 19.9434V22.0083Z" fill="white"/>
<path d="M102.613 27.0597C102.613 28.9032 103.774 29.4906 104.714 29.4906C105.875 29.4906 106.815 28.6411 106.815 27.2992C106.815 25.51 105.857 24.6831 103.589 22.8397C99.7394 19.7085 98.0043 18.4886 98.0043 14.2685C98.0043 9.47913 101.967 7.65375 104.547 7.65375C108.36 7.65375 111.089 10.306 111.089 14.3815V15.4297C111.089 15.9448 110.958 16.13 110.371 16.13H107.073C106.612 16.13 106.539 15.9448 106.539 15.4297V14.3995C106.539 13.1299 105.875 12.0771 104.547 12.0771C103.625 12.0771 102.554 12.7233 102.554 14.3995C102.554 16.1481 103.643 16.9433 105.283 18.213C108.731 20.8833 111.473 22.8939 111.473 27.5568C111.473 31.0042 108.744 33.9501 104.673 33.9501C100.232 33.9501 98.0043 30.8009 98.0043 27.3354V26.3594C98.0043 25.7314 98.1173 25.4738 98.6324 25.4738H101.985C102.5 25.4738 102.613 25.6771 102.613 26.2284V27.0597V27.0597Z" fill="white"/>
<path d="M121.757 27.7194C121.757 27.498 121.924 27.2766 122.272 27.2766H125.48C125.774 27.2766 125.959 27.385 125.959 27.7555V28.2887C125.959 31.4018 123.546 33.8913 120.008 33.8913C116.543 33.8913 113.741 31.4018 113.741 28.2887V19.9073C113.741 16.8303 116.543 14.3227 120.008 14.3227C123.546 14.3227 125.999 16.8303 125.999 19.9073V24.4798C125.999 24.9045 125.706 25.162 125.281 25.162H118.409V28.2932C118.409 29.102 119.109 29.9153 120.121 29.9153C121.174 29.9153 121.761 29.0658 121.761 28.2571V27.7194H121.757ZM118.404 22.0083H121.757V19.9615C121.757 19.1121 121.111 18.3214 120.117 18.3214C119.105 18.3214 118.404 19.1121 118.404 19.9434V22.0083Z" fill="white"/>
<path d="M128.756 8.66582C128.756 8.27725 128.977 8.03778 129.384 8.03778H132.831C133.238 8.03778 133.441 8.27725 133.441 8.66582V27.7601C133.441 28.7902 133.848 29.364 135.194 29.364H135.506C136.057 29.364 136.075 29.7888 136.075 30.0463V32.9561C136.075 33.2136 136.021 33.548 135.045 33.548H133.884C131.064 33.548 128.76 32.3506 128.76 28.0357V8.66582H128.756Z" fill="white"/>
<path d="M138.633 8.66582C138.633 8.27725 138.854 8.03778 139.261 8.03778H142.708C143.115 8.03778 143.318 8.27725 143.318 8.66582V27.7601C143.318 28.7902 143.725 29.364 145.071 29.364H145.383C145.934 29.364 145.952 29.7888 145.952 30.0463V32.9561C145.952 33.2136 145.898 33.548 144.922 33.548H143.761C140.941 33.548 138.637 32.3506 138.637 28.0357V8.66582H138.633Z" fill="white"/>
<path d="M156.209 27.7194C156.209 27.498 156.376 27.2766 156.724 27.2766H159.932C160.225 27.2766 160.411 27.385 160.411 27.7555V28.2887C160.411 31.4018 157.998 33.8913 154.46 33.8913C150.995 33.8913 148.193 31.4018 148.193 28.2887V19.9073C148.193 16.8303 150.995 14.3227 154.46 14.3227C157.998 14.3227 160.451 16.8303 160.451 19.9073V24.4798C160.451 24.9045 160.158 25.162 159.733 25.162H152.861V28.2932C152.861 29.102 153.561 29.9153 154.573 29.9153C155.626 29.9153 156.213 29.0658 156.213 28.2571V27.7194H156.209ZM152.856 22.0083H156.209V19.9615C156.209 19.1121 155.563 18.3214 154.569 18.3214C153.556 18.3214 152.856 19.1121 152.856 19.9434V22.0083Z" fill="white"/>
<path d="M162.986 20.7748C162.986 16.1119 166.488 14.3227 169.456 14.3227C170.288 14.3227 170.929 14.3408 171.467 14.4718C171.815 14.5622 172 14.8423 172 15.1902V17.8424C172 18.3394 171.575 18.5428 171.132 18.5428H170.193C168.661 18.5428 167.649 19.6317 167.649 21.3983V32.6759C167.649 33.322 167.152 33.5434 166.822 33.5434H163.542C163.23 33.5434 162.991 33.322 162.991 32.8973V20.7748H162.986Z" fill="white"/>
</svg>
