<svg width="154" height="27" viewBox="0 0 154 27" fill="none" xmlns="http://www.w3.org/2000/svg">
<g clip-path="url(#clip0_2054_9119)">
<path d="M54.7544 27C49.1816 27 44.0175 25.3432 40.5748 22.2535C39.3437 21.1494 38.3628 19.7958 37.6975 18.2831C37.0323 16.7704 36.698 15.1335 36.7171 13.4816C36.7133 11.8365 37.0545 10.2089 37.7189 8.70337C38.3833 7.19788 39.3561 5.84791 40.5748 4.74034C43.7716 1.84091 49.4275 0 54.7544 0C60.647 0 65.3653 1.48193 68.971 4.74648C70.1848 5.85367 71.1511 7.20389 71.8068 8.70902C72.4625 10.2142 72.7929 11.8404 72.7764 13.4816C72.7682 15.1244 72.4268 16.7486 71.7728 18.2562C71.1187 19.7637 70.1657 21.1235 68.971 22.2535C65.6113 25.3616 60.3365 27 54.7544 27V23.447C57.7084 23.447 60.4503 22.4284 62.3653 20.5261C64.2803 18.6239 65.1502 16.3166 65.1502 13.4693C65.1502 10.7509 64.1942 8.21045 62.3653 6.4125C60.4749 4.55625 57.6684 3.51 54.7544 3.51C51.8404 3.51 49.0217 4.54705 47.1313 6.4125C45.3085 8.21352 44.3648 10.7632 44.3648 13.4693C44.3375 14.7695 44.5678 16.0622 45.0426 17.2733C45.5173 18.4843 46.2272 19.5898 47.1313 20.5261C49.0217 22.4069 51.822 23.447 54.7544 23.447V27ZM14.0629 0C11.0843 0 7.7 0.558409 4.84133 1.84091C2.17323 3.03136 1.89409e-05 4.94284 1.89409e-05 8.11227C-0.00398962 9.77202 0.628401 11.3704 1.76748 12.5795C2.53902 13.2914 3.78392 14.5002 7.03605 15.212C8.48998 15.5189 11.5976 16.0128 14.693 16.3381C17.7884 16.6633 20.7884 16.9517 22.018 17.28C22.9955 17.5285 24.64 17.866 24.64 19.7069C24.64 21.5478 22.9094 22.1001 22.6082 22.2198C22.3069 22.3394 20.229 23.2906 16.4973 23.2906C14.0249 23.2221 11.5749 22.8016 9.22156 22.0418C7.8291 21.5448 6.36903 20.8913 5.00731 19.2314C4.45777 18.4497 4.1529 17.5229 4.13127 16.5682H0.750037V26.0182H4.50628V24.7388C4.50568 24.6438 4.53045 24.5505 4.57801 24.4683C4.62558 24.3862 4.69423 24.3181 4.77689 24.2712C4.85956 24.2244 4.95325 24.2003 5.04832 24.2016C5.14339 24.2029 5.2364 24.2294 5.31777 24.2785C7.08746 25.0472 8.92824 25.6411 10.8138 26.0519C12.7872 26.4631 14.0629 26.7607 16.5158 26.7607C19.1042 26.8098 21.6838 26.4463 24.1574 25.6838C25.7999 25.2344 27.341 24.4751 28.6974 23.447C29.4604 22.8621 30.077 22.1085 30.4989 21.2456C30.9208 20.3826 31.1364 19.4337 31.1289 18.4735C31.1417 16.6493 30.4363 14.8931 29.1647 13.5828C28.4576 12.8979 27.6384 12.3386 26.7425 11.9291C25.7794 11.4948 24.7795 11.1467 23.7547 10.889C21.8059 10.4134 17.4287 9.81818 15.3354 9.60955C13.1407 9.3825 9.33221 9.06648 7.81066 8.59705C7.34958 8.45284 6.40899 8.00795 6.40899 6.91875C6.40899 6.1425 6.83933 5.48591 7.68771 4.95511C9.03713 4.11136 11.7606 3.5867 14.6008 3.5867C17.35 3.55358 20.0766 4.08516 22.6112 5.14841C23.2922 5.44453 23.9326 5.826 24.517 6.28364C25.4697 7.0958 26.1294 8.19725 26.3951 9.41932H29.429V1.19352H26.0478V2.14773C26.0478 2.45455 25.7404 2.85955 25.1256 2.52511C23.601 1.73352 19.3161 0.0214773 14.0629 0ZM88.2932 1.50955L104.818 16.3933L104.649 6.37261C104.631 5.05636 104.391 4.50716 102.965 4.50716H99.86V1.50955H114V4.50716H110.966C109.515 4.50716 109.429 4.97352 109.404 6.37261L109.659 25.5211H104.818L85.7818 8.56636V20.5967C85.7972 21.9068 85.8587 22.5235 87.2081 22.5235H90.5893V25.5211H76.7294V22.5235H79.9753C81.1864 22.5235 81.1372 21.3699 81.1372 20.5292V6.48614C81.1372 5.56568 81.0081 4.51023 79.1085 4.51023H76.4773V1.50955H88.2932ZM130.131 22.5174C130.411 22.5174 130.69 22.5 130.967 22.4652C131.111 22.4221 131.244 22.3481 131.357 22.2485C131.469 22.1489 131.559 22.026 131.619 21.8884C131.661 21.6752 131.683 21.4584 131.684 21.241V16.5007C131.684 16.3411 131.684 16.3381 131.481 16.0865C131.278 15.8349 122.825 6.2683 122.441 5.83875C121.961 5.31716 121.119 4.51023 119.837 4.51023H116.901V1.50955H133.469V4.50409H131.471C131.01 4.50409 130.703 4.94284 131.096 5.42455C131.096 5.42455 136.672 12.0825 136.725 12.1531C136.777 12.2236 136.823 12.239 136.894 12.1745C136.964 12.1101 142.608 5.48591 142.651 5.42455C142.718 5.33716 142.758 5.2325 142.767 5.12299C142.776 5.01348 142.753 4.90374 142.701 4.8068C142.649 4.70986 142.571 4.6298 142.475 4.57614C142.379 4.52248 142.269 4.49747 142.159 4.50409H140.109V1.50955H153.692V4.51023H150.658C149.558 4.51023 149.121 4.71273 148.282 5.64545L139.138 16.0589C139.048 16.1878 139.009 16.3449 139.027 16.5007V21.238C139.029 21.4554 139.051 21.6722 139.095 21.8853C139.154 22.0231 139.242 22.1461 139.355 22.2458C139.467 22.3455 139.599 22.4194 139.743 22.4622C140.018 22.4984 140.296 22.5159 140.573 22.5143H143.675V25.515H127.193V22.5143L130.131 22.5174Z" fill="white"/>
</g>
<defs>
<clipPath id="clip0_2054_9119">
<rect width="153.692" height="27" fill="white"/>
</clipPath>
</defs>
</svg>
