<svg width="223" height="49" viewBox="0 0 223 49" fill="none" xmlns="http://www.w3.org/2000/svg">
<g clip-path="url(#clip0_2054_9137)">
<path d="M67.5202 16.9456H70.9268L65.3365 26.1171V31.7948H62.3667V26.0298L56.7764 16.9456H60.2703L63.9389 23.4094L67.5202 16.9456ZM88.7458 31.7948H99.577V29.087H91.7157V25.8551H97.3059V23.322H91.7157V19.566H99.577V16.9456H88.7458V31.7948ZM186.838 23.2347H180.811V16.9456H177.754V31.7948H180.811V25.8551H186.838V31.7948H189.895V16.9456H186.838V23.2347ZM194.612 31.7948H205.53V29.087H197.669V25.8551H203.259V23.322H197.669V19.566H205.53V16.9456H194.612V31.7948ZM167.097 19.3913C168.844 19.3913 170.416 20.3522 171.29 21.9244H174.609L174.434 21.575C173.299 18.6052 170.416 16.5962 167.01 16.5962C162.555 16.5962 159.061 20.0028 159.061 24.3702C159.061 28.7376 162.555 32.1442 167.01 32.1442C170.416 32.1442 173.299 30.1352 174.434 27.1653L174.609 26.8159H171.29C170.329 28.3882 168.844 29.349 167.097 29.349C164.389 29.349 162.206 27.078 162.206 24.2828C162.293 21.575 164.477 19.3913 167.097 19.3913ZM78.7881 27.9515L75.0321 16.9456H71.7129L77.0412 31.7948H80.273L85.6886 16.9456H82.4567L78.7881 27.9515ZM217.06 23.4967C218.196 23.4967 219.069 22.6232 219.069 21.4877C219.069 20.3522 218.196 19.4787 217.06 19.4787H212.606V23.4094H217.06V23.4967ZM222.476 31.7948H222.039H219.069L216.1 25.8551H212.606V31.7948H209.548V16.9456H217.672C220.118 16.9456 222.127 18.9546 222.127 21.4003C222.127 23.322 220.904 24.9816 219.244 25.5931L222.476 31.7948ZM148.841 29.4364C151.549 29.4364 153.733 27.1653 153.733 24.3702C153.733 21.575 151.549 19.3913 148.841 19.3913C146.134 19.3913 143.95 21.6624 143.95 24.3702C143.95 27.1653 146.134 29.4364 148.841 29.4364ZM148.841 16.5962C153.296 16.5962 156.79 20.0028 156.79 24.3702C156.79 28.7376 153.296 32.1442 148.841 32.1442C144.299 32.1442 140.893 28.7376 140.893 24.3702C140.893 20.0028 144.387 16.5962 148.841 16.5962ZM113.203 24.1081C112.417 23.584 111.544 23.322 109.622 22.7979C106.39 22.0991 106.128 21.7497 106.128 20.8763C106.128 19.8281 107.002 19.1293 108.661 19.1293C110.233 19.1293 111.107 19.7407 111.456 21.051H114.426C114.164 18.2558 112.068 16.6835 108.836 16.6835C105.517 16.6835 103.246 18.4305 103.246 21.1383C103.246 22.4485 103.77 23.4967 104.818 24.1955C105.429 24.6322 106.914 25.1563 108.836 25.5931L109.098 25.6804L109.622 25.7678C110.059 25.8551 110.583 26.0298 110.845 26.2045C111.631 26.6412 111.893 26.9906 111.893 27.6894C111.893 28.9123 110.932 29.6984 109.098 29.6984C107.002 29.6984 105.953 28.9123 105.691 27.2527H102.722C102.984 30.3972 105.255 32.2315 109.011 32.2315C112.679 32.2315 115.038 30.4846 115.038 27.4274C114.95 26.0298 114.339 24.8943 113.203 24.1081ZM133.293 23.4967C134.429 23.4967 135.302 22.6232 135.302 21.4877C135.302 20.3522 134.429 19.4787 133.293 19.4787H128.751V23.4094H133.293V23.4967ZM138.622 31.7948H138.185H135.215L132.245 25.8551H128.751V31.7948H125.694V16.9456H133.818C136.263 16.9456 138.272 18.9546 138.272 21.4003C138.272 23.322 137.049 24.9816 135.39 25.5931L138.622 31.7948Z" fill="white"/>
<path d="M23.4093 28.1261C28.7376 25.5057 32.2315 20.7889 31.7948 14.6745C26.1171 16.7709 22.9726 22.1864 22.9726 27.8641V41.8398C23.4093 41.8398 23.9334 41.9271 24.4575 41.9271C29.611 41.9271 34.1532 39.7434 37.385 36.2495C31.358 35.9875 26.4665 33.1923 23.4093 28.1261ZM24.4575 6.90051C17.2949 6.90051 11.0932 11.2679 8.38543 17.3823C13.2769 17.9937 17.3823 20.7015 20.0027 24.5448C21.1383 16.7709 27.5147 12.1414 34.6772 10.2197C34.5899 10.1324 34.5899 10.1324 34.5025 10.045C31.6201 8.12338 28.2135 6.90051 24.4575 6.90051ZM7.4246 20.6142C7.07521 21.8371 6.90051 23.1473 6.90051 24.4575C6.90051 32.4935 12.2288 39.2193 19.566 41.3157V34.0658C19.6533 26.8159 14.2378 21.2256 7.4246 20.6142ZM24.4575 0C10.9185 0 0 10.9185 0 24.4575C0 37.9091 10.9185 48.915 24.4575 48.915C37.9091 48.915 48.915 37.9965 48.915 24.4575C48.915 10.9185 37.9091 0 24.4575 0ZM24.4575 45.2464C12.9275 45.2464 3.66862 35.9001 3.66862 24.4575C3.66862 12.9275 12.9275 3.66862 24.4575 3.66862C35.9001 3.66862 45.2464 13.0149 45.2464 24.4575C45.2464 35.9001 35.9001 45.2464 24.4575 45.2464ZM34.6772 10.3071C35.8128 17.4696 34.1532 24.9816 28.1261 29.087C30.3972 31.6201 34.9393 33.4544 39.7434 33.0176C41.141 30.4845 41.9271 27.602 41.9271 24.5448C41.9271 18.6052 39.0447 13.4516 34.6772 10.3071Z" fill="white"/>
</g>
<defs>
<clipPath id="clip0_2054_9137">
<rect width="223" height="48.915" fill="white"/>
</clipPath>
</defs>
</svg>
